M48
;GenerationSoftware,Autodesk,EAGLE,9.6.2*%
;CreationDate,2021-12-15T04:58:06Z*%
FMAT,2
ICI,OFF
METRIC,TZ,000.000
T7C0.350
T6C0.550
T5C0.700
T4C0.813
T3C1.000
T2C1.200
T1C3.200
%
G90
M71
T1
X49000Y500
X4500Y500
X4500Y42500
X49000Y42500
T2
X31745Y42530
X24295Y42530
T3
X38760Y17550
X47000Y13800
X37490Y32790
X23520Y4850
X38760Y15010
X38760Y12470
X38760Y9930
X38760Y7390
X38760Y4850
X38760Y2310
X23520Y2310
X23520Y7390
X23520Y9930
X23520Y12470
X23520Y15010
X23520Y20090
X23520Y22630
X23520Y25170
X23520Y27710
X23520Y30250
X24790Y32790
X23520Y17550
X38760Y20090
X38760Y22630
X38760Y25170
X38760Y27710
X38760Y30250
X36220Y2310
X33680Y2310
X31140Y2310
X34950Y32790
X32410Y32790
X29870Y32790
X27330Y32790
X36220Y18820
X36220Y21360
X7000Y11500
X7000Y15000
X7000Y8000
X7000Y4500
X7000Y18500
X47000Y24500
X47000Y21000
X47000Y28000
X47000Y31500
X47000Y17500
X47000Y10300
T4
X20390Y12320
X20390Y14860
X12770Y9780
X12770Y7240
X20390Y9780
X20390Y7240
X12770Y14860
X12770Y12320
T5
X30020Y39230
X26120Y39230
T6
X13970Y41275
X13970Y36195
X13970Y31115
X13970Y28575
X13970Y26035
X13970Y23495
X13970Y38735
T7
X26712Y37142
M30